<svg xmlns="http://www.w3.org/2000/svg" xmlns:xlink="http://www.w3.org/1999/xlink"
    height="35px" width="35px" version="1.1" id="Capa_1" viewBox="20 15 20 35" xml:space="preserve">
    <g>
        <path fill="#262626" stroke="#262626" stroke-width="0.1" d="M19.5,39c3.584,0,6.5-2.916,6.5-6.5S23.084,26,19.5,26c-1.236,0-2.388,0.353-3.373,0.954C18.038,22.854,22.187,20,27,20   c0.553,0,1-0.447,1-1s-0.447-1-1-1c-7.72,0-14,6.28-14,14c0,0.036,0.017,0.066,0.02,0.1C13.012,32.233,13,32.365,13,32.5   C13,36.084,15.916,39,19.5,39z M19.5,28c2.481,0,4.5,2.019,4.5,4.5S21.981,37,19.5,37S15,34.981,15,32.5S17.019,28,19.5,28z"/>
        <path fill="#262626" stroke="#262626" stroke-width="0.1" d="M36.5,39c3.584,0,6.5-2.916,6.5-6.5S40.084,26,36.5,26c-1.236,0-2.388,0.353-3.373,0.954C35.038,22.854,39.187,20,44,20   c0.553,0,1-0.447,1-1s-0.447-1-1-1c-7.72,0-14,6.28-14,14c0,0.036,0.017,0.066,0.02,0.1C30.012,32.233,30,32.365,30,32.5   C30,36.084,32.916,39,36.5,39z M36.5,28c2.481,0,4.5,2.019,4.5,4.5S38.981,37,36.5,37S32,34.981,32,32.5S34.019,28,36.5,28z"/>
    </g>
</svg>