<svg xmlns="http://www.w3.org/2000/svg" xmlns:xlink="http://www.w3.org/1999/xlink"
    height="18px" width="18px" version="1.1" id="Capa_1" viewBox="0 0 60.001 60.001"
    xml:space="preserve">
    <g>
        <path stroke="#222" stroke-width="0.1" d="M59.708,58.294l-7.786-7.786c0,0-0.001-0.001-0.001-0.001s-0.001,0-0.001,0L34.244,32.831c0,0-0.001-0.001-0.001-0.001   s-0.001,0-0.001-0.001L16.567,15.153c0,0-0.001-0.001-0.001-0.001c0,0-0.001,0-0.001-0.001L1.708,0.294   C1.421,0.007,0.992-0.08,0.618,0.077c-0.374,0.154-0.617,0.52-0.617,0.924v58c0,0.553,0.448,1,1,1h58   c0.404,0,0.769-0.243,0.924-0.617S59.994,58.58,59.708,58.294z M2.001,58.001V3.415l5.373,5.373l-1.414,1.414   c-0.391,0.391-0.391,1.023,0,1.414c0.195,0.195,0.451,0.293,0.707,0.293s0.512-0.098,0.707-0.293l1.414-1.414l2.121,2.121   L8.08,15.152c-0.391,0.391-0.391,1.023,0,1.414c0.195,0.195,0.451,0.293,0.707,0.293s0.512-0.098,0.707-0.293l2.829-2.828   l2.121,2.121l-1.414,1.415c-0.391,0.391-0.391,1.023,0,1.414c0.195,0.195,0.451,0.293,0.707,0.293s0.512-0.098,0.707-0.293   l1.414-1.415l2.122,2.122l-2.829,2.828c-0.391,0.391-0.391,1.023,0,1.414c0.195,0.195,0.451,0.293,0.707,0.293   s0.512-0.098,0.707-0.293l2.829-2.828l2.121,2.121l-1.414,1.414c-0.391,0.391-0.391,1.023,0,1.414   c0.195,0.195,0.451,0.293,0.707,0.293s0.512-0.098,0.707-0.293l1.414-1.414l2.122,2.122l-2.829,2.828   c-0.391,0.391-0.391,1.023,0,1.414c0.195,0.195,0.451,0.293,0.707,0.293s0.512-0.098,0.707-0.293l2.829-2.828l2.121,2.121   l-1.414,1.414c-0.391,0.391-0.391,1.023,0,1.414c0.195,0.195,0.451,0.293,0.707,0.293s0.512-0.098,0.707-0.293l1.414-1.414   l2.121,2.121l-2.828,2.829c-0.391,0.391-0.391,1.023,0,1.414c0.195,0.195,0.451,0.293,0.707,0.293s0.512-0.098,0.707-0.293   l2.828-2.829l2.122,2.122l-1.414,1.414c-0.391,0.391-0.391,1.023,0,1.414c0.195,0.195,0.451,0.293,0.707,0.293   s0.512-0.098,0.707-0.293l1.414-1.414l2.121,2.121l-2.828,2.829c-0.391,0.391-0.391,1.023,0,1.414   c0.195,0.195,0.451,0.293,0.707,0.293s0.512-0.098,0.707-0.293l2.828-2.829l2.122,2.122l-1.414,1.414   c-0.391,0.391-0.391,1.023,0,1.414c0.195,0.195,0.451,0.293,0.707,0.293s0.512-0.098,0.707-0.293l1.414-1.414l2.121,2.121   l-2.829,2.828c-0.391,0.391-0.391,1.023,0,1.414c0.195,0.195,0.451,0.293,0.707,0.293s0.512-0.098,0.707-0.293l2.829-2.828   l2.121,2.121l-1.414,1.415c-0.391,0.391-0.391,1.023,0,1.414c0.195,0.195,0.451,0.293,0.707,0.293s0.512-0.098,0.707-0.293   l1.414-1.415l5.373,5.373H2.001z"/>
        <path stroke="#222" stroke-width="1" d="M13.708,29.265c-0.287-0.286-0.716-0.375-1.09-0.217c-0.374,0.154-0.617,0.52-0.617,0.924v17.029c0,0.553,0.448,1,1,1   H30.03c0.404,0,0.769-0.243,0.924-0.617s0.069-0.804-0.217-1.09L13.708,29.265z M14.001,46.001V32.386l13.615,13.615H14.001z"/>
    </g>
</svg>