<svg xmlns="http://www.w3.org/2000/svg" xmlns:xlink="http://www.w3.org/1999/xlink" fill="#fff"
    height="14px" width="14px" version="1.1" id="Layer_1" viewBox="0 0 485 470"
    xml:space="preserve">
    <g>
        <g>
            <path d="M444.6,53.9H202.9V13.5c0-7.4-6-13.5-13.5-13.5H81.5C74.1,0,68,6,68,13.5v40.4H40.4C18.1,53.9,0,72,0,94.3v350.3    C0,466.9,18.1,485,40.4,485h404.2c22.3,0,40.4-18.1,40.4-40.4V94.3C485,72,466.9,53.9,444.6,53.9z M95,26.9h81v362H95V26.9z     M458.2,444.6h-0.1c0,7.4-6,13.5-13.5,13.5H40.4c-7.4,0-13.5-6-13.5-13.5V94.3c0-7.4,6-13.5,13.5-13.5H68v321.6    c0,7.4,6,13.5,13.5,13.5h108c7.4,0,13.5-6,13.5-13.5V80.8h241.7c7.4,0,13.5,6,13.5,13.5V444.6z"/>
        </g>
    </g>
    <g>
        <g>
            <path d="M417.7,114.4h-179c-7.4,0-13.5,6-13.5,13.5v87.8c0,7.4,6,13.5,13.5,13.5h179c7.4,0,13.5-6,13.5-13.5v-87.8    C431.1,120.4,425.1,114.4,417.7,114.4z M404.2,202.2h-152v-60.9h152V202.2z"/>
        </g>
    </g>
    <g>
        <g>
            <path d="M260.3,264.9h-21.6c-7.4,0-13.5,6-13.5,13.5c0,7.4,6,13.5,13.5,13.5h21.6c7.4,0,13.5-6,13.5-13.5    C273.8,271,267.7,264.9,260.3,264.9z"/>
        </g>
    </g>
    <g>
        <g>
            <path d="M339,264.9h-21.6c-7.4,0-13.5,6-13.5,13.5c0,7.4,6,13.5,13.5,13.5H339c7.4,0,13.5-6,13.5-13.5    C352.4,271,346.4,264.9,339,264.9z"/>
        </g>
    </g>
    <g>
        <g>
            <path d="M417.7,264.9h-21.6c-7.4,0-13.5,6-13.5,13.5c0,7.4,6,13.5,13.5,13.5h21.6c7.4,0,13.5-6,13.5-13.5    C431.1,271,425.1,264.9,417.7,264.9z"/>
        </g>
    </g>
    <g>
        <g>
            <path d="M260.3,324.8h-21.6c-7.4,0-13.5,6-13.5,13.5s6,13.5,13.5,13.5h21.6c7.4,0,13.5-6,13.5-13.5S267.7,324.8,260.3,324.8z"/>
        </g>
    </g>
    <g>
        <g>
            <path d="M339,324.8h-21.6c-7.4,0-13.5,6-13.5,13.5s6,13.5,13.5,13.5H339c7.4,0,13.5-6,13.5-13.5S346.4,324.8,339,324.8z"/>
        </g>
    </g>
    <g>
        <g>
            <path d="M417.7,324.8h-21.6c-7.4,0-13.5,6-13.5,13.5s6,13.5,13.5,13.5h21.6c7.4,0,13.5-6,13.5-13.5S425.1,324.8,417.7,324.8z"/>
        </g>
    </g>
    <g>
        <g>
            <path d="M260.3,384.8h-21.6c-7.4,0-13.5,6-13.5,13.5c0,7.4,6,13.5,13.5,13.5h21.6c7.4,0,13.5-6,13.5-13.5S267.7,384.8,260.3,384.8    z"/>
        </g>
    </g>
    <g>
        <g>
            <path d="M339,384.8h-21.6c-7.4,0-13.5,6-13.5,13.5c0,7.4,6,13.5,13.5,13.5H339c7.4,0,13.5-6,13.5-13.5    C352.4,390.8,346.4,384.8,339,384.8z"/>
        </g>
    </g>
    <g>
        <g>
            <path d="M417.7,384.8h-21.6c-7.4,0-13.5,6-13.5,13.5c0,7.4,6,13.5,13.5,13.5h21.6c7.4,0,13.5-6,13.5-13.5    C431.1,390.8,425.1,384.8,417.7,384.8z"/>
        </g>
    </g>
</svg>