<svg xmlns="http://www.w3.org/2000/svg" xmlns:xlink="http://www.w3.org/1999/xlink" height="20px"
    width="20px" version="1.1" id="Layer_1" viewBox="0 0 512 512" xml:space="preserve">
   <polygon xmlns="http://www.w3.org/2000/svg" style="fill:red;" points="512,264.828 459.034,264.828 459.034,317.793 414.897,317.793 414.897,264.828    361.931,264.828 361.931,220.69 414.897,220.69 414.897,167.724 459.034,167.724 459.034,220.69 512,220.69  "/>
    <g>
       <path style="fill:red;" d="M171.245,425.622c-46.319,0-90.952-18.145-122.456-49.783   C17.019,343.938-0.306,300.944,0.004,254.779c0.309-46.153,18.206-88.902,50.392-120.369   c31.683-30.974,73.605-48.032,118.042-48.032c24.154,0,44.759,3.946,62.996,12.064c6.633,2.953,19.064,8.949,25.158,12.531   c6.033,3.546,21.141,14.397,23.234,15.904c5.34,3.712,8.734,9.543,9.315,16.024c0.589,6.523-1.744,12.912-6.4,17.524   l-38.748,38.385c-7.446,7.377-19.132,8.437-27.786,2.515l-13.097-8.961c-9.968-6.155-21.676-9.408-33.873-9.408   c-18.243,0-36.179,7.417-49.207,20.349c-27.866,27.67-28.178,76.555-0.666,104.611c13.129,13.393,31.97,21.073,51.695,21.073   c19.145,0,36.899-7.326,48.709-20.1c1.193-1.29,2.334-2.598,3.416-3.916h-50.447c-12.078,0-21.905-9.826-21.905-21.904v-46.791   c0-12.078,9.826-21.904,21.905-21.904h135.264c10.806,0,19.869,7.71,21.613,18.355c0.4,2.167,1.602,8.84,1.823,11.842l0,0   c0.713,9.73,0.1,28.467-0.309,36.016c-1.948,35.979-16.242,69.119-41.34,95.837C260.42,407.691,217.212,425.622,171.245,425.622z    M168.438,106.777c-39.075,0-75.932,14.994-103.781,42.221c-28.266,27.633-43.982,65.249-44.254,105.92   c-0.273,40.681,14.941,78.513,42.84,106.531c27.704,27.821,67.069,43.778,108.001,43.778c40.359,0,78.148-15.587,103.676-42.764   c21.762-23.168,34.155-51.861,35.839-82.975c0.476-8.808,0.913-25.523,0.335-33.424c-0.099-1.344-0.886-6.103-1.558-9.741   c-0.017-0.092-0.033-0.185-0.047-0.277c-0.115-0.736-0.74-1.271-1.486-1.271H172.738c-0.83,0-1.506,0.675-1.506,1.505v46.791   c0,0.83,0.676,1.505,1.506,1.505h68.958c3.47,0,6.702,1.764,8.58,4.684c1.877,2.919,2.141,6.592,0.701,9.749   c-3.644,7.988-9.257,16.194-16.23,23.734c-15.658,16.935-38.871,26.647-63.685,26.647c-25.17,0-49.32-9.911-66.26-27.19   c-16.785-17.116-26.319-41.488-26.156-66.865c0.163-25.378,10.009-49.617,27.016-66.503c16.821-16.697,39.994-26.272,63.579-26.272   c16.084,0,31.587,4.357,44.833,12.6c0.125,0.079,0.249,0.159,0.37,0.242l13.285,9.091c0.595,0.406,1.398,0.335,1.911-0.172   l38.748-38.385c0.319-0.317,0.479-0.756,0.44-1.204c-0.041-0.452-0.276-0.855-0.65-1.11c-0.064-0.044-0.129-0.09-0.193-0.136   c-4.52-3.257-17.237-12.287-21.725-14.927c-5.376-3.159-17.083-8.794-23.119-11.481   C207.567,110.145,189.675,106.777,168.438,106.777z"/>
    </g>
</svg>